<?xml version="1.0" encoding="utf-8"?>
<!-- Generator: Adobe Illustrator 17.0.0, SVG Export Plug-In . SVG Version: 6.00 Build 0)  -->
<!DOCTYPE svg PUBLIC "-//W3C//DTD SVG 1.1//EN" "http://www.w3.org/Graphics/SVG/1.1/DTD/svg11.dtd">
<svg version="1.1" id="Layer_1" xmlns="http://www.w3.org/2000/svg" xmlns:xlink="http://www.w3.org/1999/xlink" x="0px" y="0px"
	 width="244px" height="178px" viewBox="-14 19 244 178" enable-background="new -14 19 244 178" xml:space="preserve">
<rect x="-56.5" y="-124.5" display="none" fill="#4C3338" width="353" height="440"/>
<g>
	<path fill="#FFFFFF" d="M107.69,19.433c-67.007,0-121.295,51.806-121.295,115.711c0,22.646,6.825,43.43,18.613,61.423h206.294
		c11.788-17.682,18.303-38.777,18.303-61.423C228.984,71.239,174.696,19.433,107.69,19.433z"/>
	<path fill="#E31837" d="M107.73,31.915c-58.32,0-105.57,45.09-105.57,100.71c0,19.71,5.94,37.8,16.2,53.46h51.03
		c-15.39-11.61-25.65-30.24-25.65-51.03c0-35.37,28.62-64.26,64.26-64.26c35.37,0,64.26,28.62,64.26,64.26
		c0,20.79-9.99,39.42-25.38,51.03h51.03c10.26-15.39,15.93-33.75,15.93-53.46C213.3,77.005,166.05,31.915,107.73,31.915z"/>
	<path fill="#E31837" d="M72.9,149.095c4.86,14.85,18.63,25.38,34.56,25.38c16.2,0,29.7-10.53,34.56-25.38H72.9z"/>
</g>
</svg>
